<?xml version="1.0" encoding="UTF-8"?><svg id="Layer_1" xmlns="http://www.w3.org/2000/svg" viewBox="0 0 512 511.9"><defs><style>.cls-1{fill:#473226;}</style></defs><path class="cls-1" d="M400,191.9H32c-17.75,0-32,14.3-32,32v192c0,53,43,96,96,96h192c53,0,96-43,96-96h16c61.75,0,112-50.25,112-112s-50.2-112-112-112Zm0,160h-16v-96h16c26.5,0,48,21.5,48,48s-21.5,48-48,48ZM107.9,100.6c12.4,6.4,20.1,20.7,20.1,35.3,0,13.25,10.75,23.89,24,23.89s24-11.79,24-24.19c0-31.34-16.83-60.64-43.91-76.45-12.39-7.22-20.09-20.62-20.09-34.97C112,10.93,101.25,.04,88,.04s-24,10.89-24,24.14c0,31.35,16.83,60.64,43.9,76.42Zm112,0c12.4,6.4,20.1,20.7,20.1,35.3,0,13.25,10.75,23.86,24,23.86s24-11.76,24-24.16c0-31.34-16.83-60.64-43.91-76.45-12.39-7.22-20.09-20.62-20.09-34.97,0-13.25-10.75-24.18-24-24.18s-24,10.93-24,24.18c0,31.35,16.8,60.64,43.9,76.42Z"/></svg>